<mxfile host="app.diagrams.net" modified="2023-10-19T03:23:54.605Z" agent="Mozilla/5.0 (X11; Linux x86_64; rv:109.0) Gecko/20100101 Firefox/114.0" etag="1WJhdeCvr6hjyEaeEZpB" version="21.6.6" type="github">
  <diagram name="第 1 页" id="utVh5in4pCdx4y18A-bm">
    <mxGraphModel dx="2074" dy="1078" grid="1" gridSize="10" guides="1" tooltips="1" connect="1" arrows="1" fold="1" page="1" pageScale="1" pageWidth="827" pageHeight="1169" math="0" shadow="0">
      <root>
        <mxCell id="0" />
        <mxCell id="1" parent="0" />
        <mxCell id="0ZOcgmfaaoIlTx78gVGc-5" value="" style="edgeStyle=orthogonalEdgeStyle;rounded=0;orthogonalLoop=1;jettySize=auto;html=1;" edge="1" parent="1" source="0ZOcgmfaaoIlTx78gVGc-1" target="0ZOcgmfaaoIlTx78gVGc-4">
          <mxGeometry relative="1" as="geometry" />
        </mxCell>
        <mxCell id="0ZOcgmfaaoIlTx78gVGc-1" value="点击登出" style="rounded=0;whiteSpace=wrap;html=1;" vertex="1" parent="1">
          <mxGeometry x="354" y="200" width="120" height="60" as="geometry" />
        </mxCell>
        <mxCell id="0ZOcgmfaaoIlTx78gVGc-7" value="" style="edgeStyle=orthogonalEdgeStyle;rounded=0;orthogonalLoop=1;jettySize=auto;html=1;" edge="1" parent="1" source="0ZOcgmfaaoIlTx78gVGc-4" target="0ZOcgmfaaoIlTx78gVGc-6">
          <mxGeometry relative="1" as="geometry" />
        </mxCell>
        <mxCell id="0ZOcgmfaaoIlTx78gVGc-4" value="执行登录功能" style="whiteSpace=wrap;html=1;rounded=0;" vertex="1" parent="1">
          <mxGeometry x="354" y="290" width="120" height="60" as="geometry" />
        </mxCell>
        <mxCell id="0ZOcgmfaaoIlTx78gVGc-9" value="" style="edgeStyle=orthogonalEdgeStyle;rounded=0;orthogonalLoop=1;jettySize=auto;html=1;" edge="1" parent="1" source="0ZOcgmfaaoIlTx78gVGc-6" target="0ZOcgmfaaoIlTx78gVGc-8">
          <mxGeometry relative="1" as="geometry" />
        </mxCell>
        <mxCell id="0ZOcgmfaaoIlTx78gVGc-13" value="否" style="edgeLabel;html=1;align=center;verticalAlign=middle;resizable=0;points=[];" vertex="1" connectable="0" parent="0ZOcgmfaaoIlTx78gVGc-9">
          <mxGeometry x="-0.1" y="-3" relative="1" as="geometry">
            <mxPoint as="offset" />
          </mxGeometry>
        </mxCell>
        <mxCell id="0ZOcgmfaaoIlTx78gVGc-11" value="" style="edgeStyle=orthogonalEdgeStyle;rounded=0;orthogonalLoop=1;jettySize=auto;html=1;" edge="1" parent="1" source="0ZOcgmfaaoIlTx78gVGc-6" target="0ZOcgmfaaoIlTx78gVGc-10">
          <mxGeometry relative="1" as="geometry" />
        </mxCell>
        <mxCell id="0ZOcgmfaaoIlTx78gVGc-12" value="是" style="edgeLabel;html=1;align=center;verticalAlign=middle;resizable=0;points=[];" vertex="1" connectable="0" parent="0ZOcgmfaaoIlTx78gVGc-11">
          <mxGeometry x="-0.2444" y="2" relative="1" as="geometry">
            <mxPoint as="offset" />
          </mxGeometry>
        </mxCell>
        <mxCell id="0ZOcgmfaaoIlTx78gVGc-6" value="是否成功" style="rhombus;whiteSpace=wrap;html=1;rounded=0;" vertex="1" parent="1">
          <mxGeometry x="374" y="370" width="80" height="80" as="geometry" />
        </mxCell>
        <mxCell id="0ZOcgmfaaoIlTx78gVGc-8" value="返回错误信息" style="whiteSpace=wrap;html=1;rounded=0;" vertex="1" parent="1">
          <mxGeometry x="194" y="380" width="120" height="60" as="geometry" />
        </mxCell>
        <mxCell id="0ZOcgmfaaoIlTx78gVGc-10" value="登出成功" style="whiteSpace=wrap;html=1;rounded=0;" vertex="1" parent="1">
          <mxGeometry x="354" y="480" width="120" height="60" as="geometry" />
        </mxCell>
      </root>
    </mxGraphModel>
  </diagram>
</mxfile>
